<?xml version="1.0" encoding="UTF-8"?>
<!DOCTYPE svg PUBLIC "-//W3C//DTD SVG 1.1//EN" "http://www.w3.org/Graphics/SVG/1.1/DTD/svg11.dtd">
<!-- Creator: CorelDRAW 2021 (64 Bit) -->
<svg xmlns="http://www.w3.org/2000/svg" xml:space="preserve" width="300mm" height="300mm" version="1.1" style="shape-rendering:geometricPrecision; text-rendering:geometricPrecision; image-rendering:optimizeQuality; fill-rule:evenodd; clip-rule:evenodd"
viewBox="0 0 30000 30000"
 xmlns:xlink="http://www.w3.org/1999/xlink"
 xmlns:xodm="http://www.corel.com/coreldraw/odm/2003">
 <defs>
  <style type="text/css">
   <![CDATA[
    .str2 {stroke:#A80000;stroke-width:282.22;stroke-linecap:round;stroke-linejoin:round;stroke-miterlimit:22.9256}
    .str1 {stroke:white;stroke-width:282.22;stroke-linecap:round;stroke-linejoin:round;stroke-miterlimit:22.9256}
    .str0 {stroke:black;stroke-width:20;stroke-linecap:round;stroke-linejoin:round;stroke-miterlimit:22.9256}
    .str3 {stroke:white;stroke-width:20;stroke-linecap:round;stroke-linejoin:round;stroke-miterlimit:22.9256}
    .fil2 {fill:#A80000}
    .fil0 {fill:#D10000}
    .fil1 {fill:white}
   ]]>
  </style>
 </defs>
 <g id="Camada_x0020_1">
  <metadata id="CorelCorpID_0Corel-Layer"/>
  <rect class="fil0 str0" x="-108.22" y="-102.36" width="29967.6" height="30210.58"/>
 </g>
 <g id="Camada_x0020_2" visibility="hidden">
  <metadata id="CorelCorpID_1Corel-Layer"/>
  <g id="_2503966075264">
   <g>
    <path class="fil1 str1" d="M22996.18 15910.18c-453.09,3991.46 -3861.64,7093.64 -8000,7093.64 -4138.36,0 -7546.91,-3102.18 -8000,-7093.64l5490.9 0c372.7,1018.31 1355.39,1745.61 2509.1,1745.61 1153.72,0 2136.42,-727.3 2509.11,-1745.61l5490.89 0z"/>
    <path class="fil2 str2" d="M14996.18 7003.82c4138.36,0 7546.91,3102.18 8000,7093.64l-5490.89 0c-372.69,-1018.31 -1355.39,-1745.62 -2509.11,-1745.62 -1153.71,0 -2136.4,727.31 -2509.1,1745.62l-5490.9 0c453.09,-3991.46 3861.64,-7093.64 8000,-7093.64z"/>
   </g>
   <ellipse class="fil1 str3" cx="14996.19" cy="15003.82" rx="1442.3" ry="1500"/>
  </g>
 </g>
</svg>
